<svg xmlns="http://www.w3.org/2000/svg" xmlns:xlink="http://www.w3.org/1999/xlink" contentStyleType="text/css" data-diagram-type="CLASS" height="784px" preserveAspectRatio="none" style="width:587px;height:784px;background:#FFFFFF;" version="1.1" viewBox="0 0 587 784" width="587px" zoomAndPan="magnify"><defs/><g><!--cluster pharmacie--><g class="cluster" data-entity="pharmacie" data-source-line="4" data-uid="ent0004" id="cluster_pharmacie"><path d="M8.5,6 L84.5791,6 A3.75,3.75 0 0 1 87.0791,8.5 L94.0791,28.4883 L577.5,28.4883 A2.5,2.5 0 0 1 580,30.9883 L580,775.34 A2.5,2.5 0 0 1 577.5,777.84 L8.5,777.84 A2.5,2.5 0 0 1 6,775.34 L6,8.5 A2.5,2.5 0 0 1 8.5,6" fill="none" style="stroke:#000000;stroke-width:1.5;"/><line style="stroke:#000000;stroke-width:1.5;" x1="6" x2="94.0791" y1="28.4883" y2="28.4883"/><text fill="#000000" font-family="sans-serif" font-size="14" font-weight="bold" lengthAdjust="spacing" textLength="75.0791" x="10" y="21.5352">pharmacie</text></g><!--cluster entity--><g class="cluster" data-entity="entity" data-source-line="2" data-uid="ent0002" id="cluster_entity"><path d="M32.5,49 L74.96,49 A3.75,3.75 0 0 1 77.46,51.5 L84.46,71.4883 L553.5,71.4883 A2.5,2.5 0 0 1 556,73.9883 L556,751.34 A2.5,2.5 0 0 1 553.5,753.84 L32.5,753.84 A2.5,2.5 0 0 1 30,751.34 L30,51.5 A2.5,2.5 0 0 1 32.5,49" fill="none" style="stroke:#000000;stroke-width:1.5;"/><line style="stroke:#000000;stroke-width:1.5;" x1="30" x2="84.46" y1="71.4883" y2="71.4883"/><text fill="#000000" font-family="sans-serif" font-size="14" font-weight="bold" lengthAdjust="spacing" textLength="41.46" x="34" y="64.5352">entity</text></g><!--class Categorie--><g class="entity" data-entity="Categorie" data-source-line="4" data-uid="ent0003" id="entity_Categorie"><rect fill="#F1F1F1" height="97.4648" rx="2.5" ry="2.5" style="stroke:#181818;stroke-width:0.5;" width="146.4766" x="45.76" y="432.93"/><ellipse cx="82.8632" cy="448.93" fill="#ADD1B2" rx="11" ry="11" style="stroke:#181818;stroke-width:1;"/><path d="M85.8363,454.5731 Q85.2553,454.8719 84.6161,455.0213 Q83.9769,455.1707 83.2714,455.1707 Q80.7645,455.1707 79.4447,453.5189 Q78.1249,451.867 78.1249,448.7459 Q78.1249,445.6165 79.4447,443.9647 Q80.7645,442.3128 83.2714,442.3128 Q83.9769,442.3128 84.6244,442.4622 Q85.2719,442.6116 85.8363,442.9105 L85.8363,445.6331 Q85.2055,445.0521 84.612,444.7823 Q84.0184,444.5125 83.3876,444.5125 Q82.0429,444.5125 81.358,445.5792 Q80.6732,446.6458 80.6732,448.7459 Q80.6732,450.8377 81.358,451.9044 Q82.0429,452.971 83.3876,452.971 Q84.0184,452.971 84.612,452.7012 Q85.2055,452.4315 85.8363,451.8504 Z " fill="#000000"/><text fill="#000000" font-family="sans-serif" font-size="14" lengthAdjust="spacing" textLength="65.3584" x="101.775" y="454.221">Categorie</text><line style="stroke:#181818;stroke-width:0.5;" x1="46.76" x2="191.2366" y1="464.93" y2="464.93"/><rect fill="none" height="6" style="stroke:#C82930;stroke-width:1;" width="6" x="53.76" y="475.6741"/><text fill="#000000" font-family="sans-serif" font-size="14" lengthAdjust="spacing" textLength="50.7705" x="65.76" y="482.4652">Long id</text><rect fill="none" height="6" style="stroke:#C82930;stroke-width:1;" width="6" x="53.76" y="492.1624"/><text fill="#000000" font-family="sans-serif" font-size="14" lengthAdjust="spacing" textLength="84.998" x="65.76" y="498.9534">String libelle</text><rect fill="none" height="6" style="stroke:#C82930;stroke-width:1;" width="6" x="53.76" y="508.6507"/><text fill="#000000" font-family="sans-serif" font-size="14" lengthAdjust="spacing" textLength="120.4766" x="65.76" y="515.4417">String description</text><line style="stroke:#181818;stroke-width:0.5;" x1="46.76" x2="191.2366" y1="522.3948" y2="522.3948"/></g><!--class Medicament--><g class="entity" data-entity="Medicament" data-source-line="10" data-uid="ent0005" id="entity_Medicament"><rect fill="#F1F1F1" height="130.4414" rx="2.5" ry="2.5" style="stroke:#181818;stroke-width:0.5;" width="132.7842" x="171.61" y="607.4"/><ellipse cx="194.8766" cy="623.4" fill="#ADD1B2" rx="11" ry="11" style="stroke:#181818;stroke-width:1;"/><path d="M197.8497,629.0431 Q197.2686,629.3419 196.6295,629.4913 Q195.9903,629.6407 195.2848,629.6407 Q192.7779,629.6407 191.4581,627.9889 Q190.1383,626.337 190.1383,623.2159 Q190.1383,620.0865 191.4581,618.4347 Q192.7779,616.7828 195.2848,616.7828 Q195.9903,616.7828 196.6378,616.9322 Q197.2852,617.0816 197.8497,617.3805 L197.8497,620.1031 Q197.2188,619.5221 196.6253,619.2523 Q196.0318,618.9825 195.401,618.9825 Q194.0562,618.9825 193.3714,620.0492 Q192.6866,621.1158 192.6866,623.2159 Q192.6866,625.3077 193.3714,626.3744 Q194.0562,627.441 195.401,627.441 Q196.0318,627.441 196.6253,627.1712 Q197.2188,626.9015 197.8497,626.3204 Z " fill="#000000"/><text fill="#000000" font-family="sans-serif" font-size="14" lengthAdjust="spacing" textLength="82.4141" x="210.7136" y="628.691">Medicament</text><line style="stroke:#181818;stroke-width:0.5;" x1="172.61" x2="303.3942" y1="639.4" y2="639.4"/><rect fill="none" height="6" style="stroke:#C82930;stroke-width:1;" width="6" x="179.61" y="650.1441"/><text fill="#000000" font-family="sans-serif" font-size="14" lengthAdjust="spacing" textLength="50.7705" x="191.61" y="656.9352">Long id</text><rect fill="none" height="6" style="stroke:#C82930;stroke-width:1;" width="6" x="179.61" y="666.6324"/><text fill="#000000" font-family="sans-serif" font-size="14" lengthAdjust="spacing" textLength="74.7578" x="191.61" y="673.4234">String nom</text><rect fill="none" height="6" style="stroke:#C82930;stroke-width:1;" width="6" x="179.61" y="683.1207"/><text fill="#000000" font-family="sans-serif" font-size="14" lengthAdjust="spacing" textLength="106.7842" x="191.61" y="689.9117">BigDecimal prix</text><rect fill="none" height="6" style="stroke:#C82930;stroke-width:1;" width="6" x="179.61" y="699.609"/><text fill="#000000" font-family="sans-serif" font-size="14" lengthAdjust="spacing" textLength="88.7715" x="191.61" y="706.4">Integer stock</text><rect fill="none" height="6" style="stroke:#C82930;stroke-width:1;" width="6" x="179.61" y="716.0973"/><text fill="#000000" font-family="sans-serif" font-size="14" lengthAdjust="spacing" textLength="104.2275" x="191.61" y="722.8883">String urlImage</text><line style="stroke:#181818;stroke-width:0.5;" x1="172.61" x2="303.3942" y1="729.8414" y2="729.8414"/></g><!--class Dispensaire--><g class="entity" data-entity="Dispensaire" data-source-line="18" data-uid="ent0006" id="entity_Dispensaire"><rect fill="#F1F1F1" height="97.4648" rx="2.5" ry="2.5" style="stroke:#181818;stroke-width:0.5;" width="111.4131" x="188.29" y="84"/><ellipse cx="203.29" cy="100" fill="#ADD1B2" rx="11" ry="11" style="stroke:#181818;stroke-width:1;"/><path d="M206.2631,105.6431 Q205.6821,105.9419 205.0429,106.0913 Q204.4038,106.2407 203.6982,106.2407 Q201.1914,106.2407 199.8715,104.5889 Q198.5517,102.937 198.5517,99.8159 Q198.5517,96.6865 199.8715,95.0347 Q201.1914,93.3828 203.6982,93.3828 Q204.4038,93.3828 205.0512,93.5322 Q205.6987,93.6816 206.2631,93.9805 L206.2631,96.7031 Q205.6323,96.1221 205.0388,95.8523 Q204.4453,95.5825 203.8144,95.5825 Q202.4697,95.5825 201.7849,96.6492 Q201.1001,97.7158 201.1001,99.8159 Q201.1001,101.9077 201.7849,102.9744 Q202.4697,104.041 203.8144,104.041 Q204.4453,104.041 205.0388,103.7712 Q205.6323,103.5015 206.2631,102.9204 Z " fill="#000000"/><text fill="#000000" font-family="sans-serif" font-size="14" lengthAdjust="spacing" textLength="79.4131" x="217.29" y="105.291">Dispensaire</text><line style="stroke:#181818;stroke-width:0.5;" x1="189.29" x2="298.7031" y1="116" y2="116"/><rect fill="none" height="6" style="stroke:#C82930;stroke-width:1;" width="6" x="196.29" y="126.7441"/><text fill="#000000" font-family="sans-serif" font-size="14" lengthAdjust="spacing" textLength="50.7705" x="208.29" y="133.5352">Long id</text><rect fill="none" height="6" style="stroke:#C82930;stroke-width:1;" width="6" x="196.29" y="143.2324"/><text fill="#000000" font-family="sans-serif" font-size="14" lengthAdjust="spacing" textLength="74.7578" x="208.29" y="150.0234">String nom</text><rect fill="none" height="6" style="stroke:#C82930;stroke-width:1;" width="6" x="196.29" y="159.7207"/><text fill="#000000" font-family="sans-serif" font-size="14" lengthAdjust="spacing" textLength="71.5859" x="208.29" y="166.5117">String ville</text><line style="stroke:#181818;stroke-width:0.5;" x1="189.29" x2="298.7031" y1="173.4648" y2="173.4648"/></g><!--class AdressePostale--><g class="entity" data-entity="AdressePostale" data-source-line="24" data-uid="ent0007" id="entity_AdressePostale"><rect fill="#F1F1F1" height="97.4648" rx="2.5" ry="2.5" style="stroke:#181818;stroke-width:0.5;" width="143.2705" x="227.36" y="432.93"/><ellipse cx="246.3691" cy="448.93" fill="#ADD1B2" rx="11" ry="11" style="stroke:#181818;stroke-width:1;"/><path d="M249.3423,454.5731 Q248.7612,454.8719 248.1221,455.0213 Q247.4829,455.1707 246.7773,455.1707 Q244.2705,455.1707 242.9507,453.5189 Q241.6308,451.867 241.6308,448.7459 Q241.6308,445.6165 242.9507,443.9647 Q244.2705,442.3128 246.7773,442.3128 Q247.4829,442.3128 248.1304,442.4622 Q248.7778,442.6116 249.3423,442.9105 L249.3423,445.6331 Q248.7114,445.0521 248.1179,444.7823 Q247.5244,444.5125 246.8935,444.5125 Q245.5488,444.5125 244.864,445.5792 Q244.1792,446.6458 244.1792,448.7459 Q244.1792,450.8377 244.864,451.9044 Q245.5488,452.971 246.8935,452.971 Q247.5244,452.971 248.1179,452.7012 Q248.7114,452.4315 249.3423,451.8504 Z " fill="#000000"/><text fill="#000000" font-family="sans-serif" font-size="14" lengthAdjust="spacing" textLength="102.3613" x="261.26" y="454.221">AdressePostale</text><line style="stroke:#181818;stroke-width:0.5;" x1="228.36" x2="369.6305" y1="464.93" y2="464.93"/><rect fill="none" height="6" style="stroke:#C82930;stroke-width:1;" width="6" x="235.36" y="475.6741"/><text fill="#000000" font-family="sans-serif" font-size="14" lengthAdjust="spacing" textLength="66.6162" x="247.36" y="482.4652">String rue</text><rect fill="none" height="6" style="stroke:#C82930;stroke-width:1;" width="6" x="235.36" y="492.1624"/><text fill="#000000" font-family="sans-serif" font-size="14" lengthAdjust="spacing" textLength="117.2705" x="247.36" y="498.9534">String codePostal</text><rect fill="none" height="6" style="stroke:#C82930;stroke-width:1;" width="6" x="235.36" y="508.6507"/><text fill="#000000" font-family="sans-serif" font-size="14" lengthAdjust="spacing" textLength="71.5859" x="247.36" y="515.4417">String ville</text><line style="stroke:#181818;stroke-width:0.5;" x1="228.36" x2="369.6305" y1="522.3948" y2="522.3948"/></g><!--class Commande--><g class="entity" data-entity="Commande" data-source-line="30" data-uid="ent0008" id="entity_Commande"><rect fill="#F1F1F1" height="97.4648" rx="2.5" ry="2.5" style="stroke:#181818;stroke-width:0.5;" width="237.5039" x="302.25" y="258.47"/><ellipse cx="378.0229" cy="274.47" fill="#ADD1B2" rx="11" ry="11" style="stroke:#181818;stroke-width:1;"/><path d="M380.9961,280.1131 Q380.415,280.4119 379.7759,280.5613 Q379.1367,280.7107 378.4312,280.7107 Q375.9243,280.7107 374.6045,279.0589 Q373.2847,277.407 373.2847,274.2859 Q373.2847,271.1565 374.6045,269.5047 Q375.9243,267.8528 378.4312,267.8528 Q379.1367,267.8528 379.7842,268.0022 Q380.4316,268.1516 380.9961,268.4505 L380.9961,271.1731 Q380.3652,270.5921 379.7717,270.3223 Q379.1782,270.0525 378.5474,270.0525 Q377.2026,270.0525 376.5178,271.1192 Q375.833,272.1858 375.833,274.2859 Q375.833,276.3777 376.5178,277.4444 Q377.2026,278.511 378.5474,278.511 Q379.1782,278.511 379.7717,278.2412 Q380.3652,277.9715 380.9961,277.3904 Z " fill="#000000"/><text fill="#000000" font-family="sans-serif" font-size="14" lengthAdjust="spacing" textLength="77.458" x="398.5229" y="279.761">Commande</text><line style="stroke:#181818;stroke-width:0.5;" x1="303.25" x2="538.7539" y1="290.47" y2="290.47"/><rect fill="none" height="6" style="stroke:#C82930;stroke-width:1;" width="6" x="310.25" y="301.2141"/><text fill="#000000" font-family="sans-serif" font-size="14" lengthAdjust="spacing" textLength="50.7705" x="322.25" y="308.0052">Long id</text><rect fill="none" height="6" style="stroke:#C82930;stroke-width:1;" width="6" x="310.25" y="317.7024"/><text fill="#000000" font-family="sans-serif" font-size="14" lengthAdjust="spacing" textLength="211.5039" x="322.25" y="324.4934">LocalDateTime dateCommande</text><rect fill="none" height="6" style="stroke:#C82930;stroke-width:1;" width="6" x="310.25" y="334.1907"/><text fill="#000000" font-family="sans-serif" font-size="14" lengthAdjust="spacing" textLength="171.3291" x="322.25" y="340.9817">BigDecimal montantTotal</text><line style="stroke:#181818;stroke-width:0.5;" x1="303.25" x2="538.7539" y1="347.9348" y2="347.9348"/></g><!--class Ligne--><g class="entity" data-entity="Ligne" data-source-line="36" data-uid="ent0009" id="entity_Ligne"><rect fill="#F1F1F1" height="80.9766" rx="2.5" ry="2.5" style="stroke:#181818;stroke-width:0.5;" width="134.6846" x="405.66" y="441.18"/><ellipse cx="450.3875" cy="457.18" fill="#ADD1B2" rx="11" ry="11" style="stroke:#181818;stroke-width:1;"/><path d="M453.3607,462.8231 Q452.7796,463.1219 452.1405,463.2713 Q451.5013,463.4207 450.7957,463.4207 Q448.2889,463.4207 446.9691,461.7689 Q445.6493,460.117 445.6493,456.9959 Q445.6493,453.8665 446.9691,452.2147 Q448.2889,450.5628 450.7957,450.5628 Q451.5013,450.5628 452.1488,450.7122 Q452.7962,450.8616 453.3607,451.1605 L453.3607,453.8831 Q452.7298,453.3021 452.1363,453.0323 Q451.5428,452.7625 450.912,452.7625 Q449.5672,452.7625 448.8824,453.8292 Q448.1976,454.8958 448.1976,456.9959 Q448.1976,459.0877 448.8824,460.1544 Q449.5672,461.221 450.912,461.221 Q451.5428,461.221 452.1363,460.9512 Q452.7298,460.6815 453.3607,460.1004 Z " fill="#000000"/><text fill="#000000" font-family="sans-serif" font-size="14" lengthAdjust="spacing" textLength="36.7295" x="470.8875" y="462.471">Ligne</text><line style="stroke:#181818;stroke-width:0.5;" x1="406.66" x2="539.3446" y1="473.18" y2="473.18"/><rect fill="none" height="6" style="stroke:#C82930;stroke-width:1;" width="6" x="413.66" y="483.9241"/><text fill="#000000" font-family="sans-serif" font-size="14" lengthAdjust="spacing" textLength="50.7705" x="425.66" y="490.7152">Long id</text><rect fill="none" height="6" style="stroke:#C82930;stroke-width:1;" width="6" x="413.66" y="500.4124"/><text fill="#000000" font-family="sans-serif" font-size="14" lengthAdjust="spacing" textLength="108.6846" x="425.66" y="507.2034">Integer quantite</text><line style="stroke:#181818;stroke-width:0.5;" x1="406.66" x2="539.3446" y1="514.1566" y2="514.1566"/></g><!--link Categorie to Medicament--><g class="link" data-entity-1="Categorie" data-entity-2="Medicament" data-source-line="42" data-uid="lnk10" id="link_Categorie_Medicament"><path codeLine="42" d="M149.34,530.84 C163.94,554.02 181.65,582.14 197.39,607.13" fill="none" id="Categorie-Medicament" style="stroke:#181818;stroke-width:1;"/><polygon fill="#000000" points="180.8353,564.8245,183.169,574.0443,188.1426,570.9118,180.8353,564.8245" style="stroke:#000000;stroke-width:1;"/><text fill="#000000" font-family="sans-serif" font-size="13" lengthAdjust="spacing" textLength="76.1274" x="192.5" y="573.9684">appartient &#224;</text><text fill="#000000" font-family="sans-serif" font-size="13" lengthAdjust="spacing" textLength="8.2202" x="144.8945" y="551.0453">1</text><text fill="#000000" font-family="sans-serif" font-size="13" lengthAdjust="spacing" textLength="22.7119" x="169.7839" y="596.732">0..*</text></g><!--link Dispensaire to Commande--><g class="link" data-entity-1="Dispensaire" data-entity-2="Commande" data-source-line="44" data-uid="lnk11" id="link_Dispensaire_Commande"><path codeLine="44" d="M293.3,181.78 C317.75,205.6 347.2,234.29 371.65,258.12" fill="none" id="Dispensaire-Commande" style="stroke:#181818;stroke-width:1;"/><polygon fill="#000000" points="346.3912,223.6146,341.9637,215.1974,337.8618,219.4073,346.3912,223.6146" style="stroke:#000000;stroke-width:1;"/><text fill="#000000" font-family="sans-serif" font-size="13" lengthAdjust="spacing" textLength="35.8579" x="351.81" y="225.0384">passe</text><text fill="#000000" font-family="sans-serif" font-size="13" lengthAdjust="spacing" textLength="8.2202" x="291.4024" y="201.9678">1</text><text fill="#000000" font-family="sans-serif" font-size="13" lengthAdjust="spacing" textLength="22.7119" x="341.2131" y="247.7533">0..*</text></g><!--reverse link Dispensaire to AdressePostale--><g class="link" data-entity-1="Dispensaire" data-entity-2="AdressePostale" data-source-line="46" data-uid="lnk12" id="link_Dispensaire_AdressePostale"><path codeLine="46" d="M210.3635,192.243 C187.2035,237.923 166.94,297.57 189,355.93 C199.92,384.83 220.93,411.36 241.69,432.46" fill="none" id="Dispensaire-backto-AdressePostale" style="stroke:#181818;stroke-width:1;"/><polygon fill="#181818" points="215.79,181.54,209.5091,185.0827,210.3635,192.243,216.6444,188.7003,215.79,181.54" style="stroke:#181818;stroke-width:1;"/><polygon fill="#000000" points="194.6466,312.3133,196.3912,302.9641,190.5627,303.7242,194.6466,312.3133" style="stroke:#000000;stroke-width:1;"/><text fill="#000000" font-family="sans-serif" font-size="13" lengthAdjust="spacing" textLength="81.104" x="203" y="312.2684">est localis&#233; &#224;</text><text fill="#000000" font-family="sans-serif" font-size="13" lengthAdjust="spacing" textLength="8.2202" x="203.2764" y="202.0484">1</text><text fill="#000000" font-family="sans-serif" font-size="13" lengthAdjust="spacing" textLength="8.2202" x="225.0844" y="422.0764">1</text></g><!--reverse link Commande to AdressePostale--><g class="link" data-entity-1="Commande" data-entity-2="AdressePostale" data-source-line="48" data-uid="lnk13" id="link_Commande_AdressePostale"><path codeLine="48" d="M372.9251,365.7975 C365.2651,375.4175 364.96,376.17 358,385.93 C347.43,400.77 336.67,417.48 327.28,432.69" fill="none" id="Commande-backto-AdressePostale" style="stroke:#181818;stroke-width:1;"/><polygon fill="#181818" points="380.4,356.41,373.5334,358.6121,372.9251,365.7975,379.7917,363.5954,380.4,356.41" style="stroke:#181818;stroke-width:1;"/><polygon fill="#000000" points="360.1818,398.7154,367.7076,392.9005,362.8524,389.5875,360.1818,398.7154" style="stroke:#000000;stroke-width:1;"/><text fill="#000000" font-family="sans-serif" font-size="13" lengthAdjust="spacing" textLength="64.4731" x="372" y="399.4984">livraison &#224;</text><text fill="#000000" font-family="sans-serif" font-size="13" lengthAdjust="spacing" textLength="8.2202" x="366.4214" y="376.6193">1</text><text fill="#000000" font-family="sans-serif" font-size="13" lengthAdjust="spacing" textLength="8.2202" x="322.7105" y="422.3388">1</text></g><!--reverse link Commande to Ligne--><g class="link" data-entity-1="Commande" data-entity-2="Ligne" data-source-line="50" data-uid="lnk14" id="link_Commande_Ligne"><path codeLine="50" d="M438.9468,367.7283 C446.9768,394.3383 453.37,415.55 460.96,440.74" fill="none" id="Commande-backto-Ligne" style="stroke:#181818;stroke-width:1;"/><polygon fill="#181818" points="435.48,356.24,433.384,363.1398,438.9468,367.7283,441.0428,360.8286,435.48,356.24" style="stroke:#181818;stroke-width:1;"/><polygon fill="#000000" points="455.0033,399.3724,455.2061,389.864,449.5785,391.5608,455.0033,399.3724" style="stroke:#000000;stroke-width:1;"/><text fill="#000000" font-family="sans-serif" font-size="13" lengthAdjust="spacing" textLength="83.5986" x="462.56" y="399.4984">compos&#233;e de</text><text fill="#000000" font-family="sans-serif" font-size="13" lengthAdjust="spacing" textLength="8.2202" x="428.9028" y="376.4265">1</text><text fill="#000000" font-family="sans-serif" font-size="13" lengthAdjust="spacing" textLength="22.7119" x="435.2026" y="430.3131">1..*</text></g><!--link Ligne to Medicament--><g class="link" data-entity-1="Ligne" data-entity-2="Medicament" data-source-line="52" data-uid="lnk15" id="link_Ligne_Medicament"><path codeLine="52" d="M423.45,522.51 C388.98,550.23 342.61,587.5 304.87,617.85" fill="none" id="Ligne-Medicament" style="stroke:#181818;stroke-width:1;"/><polygon fill="#000000" points="370.6733,572.1883,379.564,568.811,375.881,564.2302,370.6733,572.1883" style="stroke:#000000;stroke-width:1;"/><text fill="#000000" font-family="sans-serif" font-size="13" lengthAdjust="spacing" textLength="57.2432" x="383.57" y="573.9684">concerne</text><text fill="#000000" font-family="sans-serif" font-size="13" lengthAdjust="spacing" textLength="6.2651" x="409.0956" y="542.8076">*</text><text fill="#000000" font-family="sans-serif" font-size="13" lengthAdjust="spacing" textLength="8.2202" x="312.1896" y="609.0127">1</text></g><!--SRC=[ZLBDJi904Bxp59DUJ4WWScsCYSA511EZlC2udTG9- -VkGZI6T_7gS_1YJcc15W7jPJkpyttVp7phKIsm9CZyAmQ3Ycb8Dd7woE2prmDG6cE4CIOgNM2I9CWtW9cp9N3HHCyfiCIQNqXhwYOBYYgmJ-oiNAmFf0zKi48ZSfTPhJDDufxB2IasgC47Vc-oKolDKO2Od5fqeSkWfqR6wmfFE7go4JdGVvMRn8hhyLfaTqMW6EdHnOJwmDS0ml9e6yeLJUsVp6Dd3DhYN8ypfr1Fn9Wv6u92VdQ0tziopYQqQUvgtPR8Z4jxJc6tsBSbLazYtzuLF976oj0eqU5jPACC1WF8heV3VjQsDmVq7aFYAjXymKt5qdQXYzmFdeEN7WbkJzNtAu2SHmRaG361hfR3SVDToMtXUzABMCshW1oTlOJRDbalBXT3ZNSY91OqZTOtMRyUQNIq2UMiec2tjUlU3m00]--></g></svg>
